<?xml version="1.0" encoding="UTF-8"?>
<svg id="Layer_2" data-name="Layer 2" xmlns="http://www.w3.org/2000/svg" xmlns:xlink="http://www.w3.org/1999/xlink" viewBox="0 0 356.64 431">
  <defs>
    <style>
      .cls-1 {
        fill: url(#linear-gradient-2);
      }

      .cls-2 {
        fill: #fff;
      }

      .cls-3 {
        fill: url(#linear-gradient-5);
      }

      .cls-3, .cls-4, .cls-5, .cls-6, .cls-7, .cls-8 {
        stroke: #010101;
        stroke-miterlimit: 10;
      }

      .cls-3, .cls-4, .cls-5, .cls-7, .cls-8 {
        stroke-width: 4px;
      }

      .cls-9 {
        fill: url(#linear-gradient-3);
      }

      .cls-4 {
        fill: url(#linear-gradient-9);
      }

      .cls-5 {
        fill: url(#linear-gradient-8);
      }

      .cls-6 {
        fill: #1a1a1a;
        stroke-width: 9px;
      }

      .cls-10 {
        fill: url(#linear-gradient-6);
      }

      .cls-11 {
        fill: #010101;
      }

      .cls-7 {
        fill: url(#linear-gradient-4);
      }

      .cls-12 {
        fill: url(#linear-gradient);
      }

      .cls-8 {
        fill: url(#linear-gradient-7);
      }
    </style>
    <linearGradient id="linear-gradient" x1="105.22" y1="392" x2="247.22" y2="392" gradientUnits="userSpaceOnUse">
      <stop offset="0" stop-color="#333"/>
      <stop offset=".27" stop-color="#2e2e2e"/>
      <stop offset=".57" stop-color="#212121"/>
      <stop offset=".88" stop-color="#0b0b0b"/>
      <stop offset="1" stop-color="#010101"/>
    </linearGradient>
    <linearGradient id="linear-gradient-2" x1="176.26" y1="357.5" x2="79.81" y2="358.19" xlink:href="#linear-gradient"/>
    <linearGradient id="linear-gradient-3" x1="58.22" y1="318.5" x2="294.22" y2="318.5" xlink:href="#linear-gradient"/>
    <linearGradient id="linear-gradient-4" x1="-311.94" y1="-444.97" x2="-311.95" y2="-421.27" gradientTransform="translate(368.02 342.86) scale(1 .5)" gradientUnits="userSpaceOnUse">
      <stop offset="0" stop-color="#4e4e4e"/>
      <stop offset=".21" stop-color="#494949"/>
      <stop offset=".45" stop-color="#3c3c3c"/>
      <stop offset=".7" stop-color="#252525"/>
      <stop offset=".96" stop-color="#070707"/>
      <stop offset="1" stop-color="#010101"/>
    </linearGradient>
    <linearGradient id="linear-gradient-5" x1="-383.25" y1="666.82" x2="-383.26" y2="690.52" gradientTransform="translate(674.93 465.63) scale(1 -.5)" xlink:href="#linear-gradient-4"/>
    <linearGradient id="linear-gradient-6" x1="429.95" y1="280.63" x2="-110.04" y2="273.93" xlink:href="#linear-gradient"/>
    <linearGradient id="linear-gradient-7" x1="178.08" y1="180" x2="178.06" y2="247.13" gradientTransform="translate(-.02 -.05)" gradientUnits="userSpaceOnUse">
      <stop offset="0" stop-color="#70cddd" stop-opacity=".33"/>
      <stop offset=".21" stop-color="#6cc5d9" stop-opacity=".37"/>
      <stop offset=".43" stop-color="#60afcf" stop-opacity=".47"/>
      <stop offset=".67" stop-color="#4d8bbd" stop-opacity=".65"/>
      <stop offset=".92" stop-color="#3258a5" stop-opacity=".9"/>
      <stop offset="1" stop-color="#28459c"/>
    </linearGradient>
    <linearGradient id="linear-gradient-8" x1="41.72" y1="8" x2="41.72" y2="36" xlink:href="#linear-gradient"/>
    <linearGradient id="linear-gradient-9" x1="291.72" y1="16" x2="319.72" y2="16" xlink:href="#linear-gradient"/>
  </defs>
  <g id="Layer_1-2" data-name="Layer 1">
    <g>
      <text/>
      <g>
        <path class="cls-12" d="M176.22,426.5c-38.49,0-71-15.8-71-34.5s32.51-34.5,71-34.5,71,15.8,71,34.5-32.51,34.5-71,34.5Z"/>
        <path class="cls-11" d="M176.22,362c18.76,0,36.25,3.7,49.26,10.42,10.96,5.66,17.24,12.8,17.24,19.58s-6.29,13.92-17.24,19.58c-13.01,6.72-30.5,10.42-49.26,10.42s-36.25-3.7-49.26-10.42c-10.96-5.66-17.24-12.8-17.24-19.58s6.29-13.92,17.24-19.58c13.01-6.72,30.5-10.42,49.26-10.42M176.22,353c-41.7,0-75.5,17.46-75.5,39s33.8,39,75.5,39,75.5-17.46,75.5-39-33.8-39-75.5-39h0Z"/>
      </g>
      <g>
        <path class="cls-1" d="M176.22,391.5c-25.49,0-49.39-3.89-67.29-10.96-16.34-6.45-25.71-14.85-25.71-23.04s9.37-16.59,25.71-23.04c17.9-7.07,41.8-10.96,67.29-10.96s49.39,3.89,67.29,10.96c16.34,6.45,25.71,14.85,25.71,23.04s-9.37,16.59-25.71,23.04c-17.9,7.07-41.8,10.96-67.29,10.96Z"/>
        <path class="cls-11" d="M176.22,328c54.02,0,88.5,17.47,88.5,29.5s-34.48,29.5-88.5,29.5-88.5-17.47-88.5-29.5,34.48-29.5,88.5-29.5M176.22,319c-53.85,0-97.5,17.24-97.5,38.5s43.65,38.5,97.5,38.5,97.5-17.24,97.5-38.5-43.65-38.5-97.5-38.5h0Z"/>
      </g>
      <g>
        <path class="cls-9" d="M176.22,352.5c-69.54,0-118-17.92-118-34s48.46-34,118-34,118,17.92,118,34-48.46,34-118,34Z"/>
        <path class="cls-11" d="M176.22,289c31.83,0,61.63,3.86,83.92,10.86,23.4,7.35,29.58,15.41,29.58,18.64s-6.18,11.28-29.58,18.64c-22.29,7-52.09,10.86-83.92,10.86s-61.63-3.86-83.92-10.86c-23.4-7.35-29.58-15.41-29.58-18.64s6.18-11.28,29.58-18.64c22.29-7,52.09-10.86,83.92-10.86M176.22,280c-67.65,0-122.5,17.24-122.5,38.5s54.85,38.5,122.5,38.5,122.5-17.24,122.5-38.5-54.85-38.5-122.5-38.5h0Z"/>
      </g>
      <rect class="cls-7" x="-52.85" y="120.39" width="217.86" height="11.81" transform="translate(174.22 54.6) rotate(82.69)"/>
      <rect class="cls-3" x="182.74" y="120.39" width="217.86" height="11.81" transform="translate(454.05 -146.93) rotate(97.31)"/>
      <g>
        <path class="cls-10" d="M177.72,311.5c-37.54,0-72.78-3.95-99.23-11.12-28.22-7.65-38.27-16.83-38.27-22.88s10.05-15.23,38.27-22.88c26.45-7.17,61.69-11.12,99.23-11.12s72.78,3.95,99.23,11.12c28.22,7.65,38.27,16.83,38.27,22.88s-10.05,15.23-38.27,22.88c-26.45,7.17-61.69,11.12-99.23,11.12Z"/>
        <path class="cls-11" d="M177.72,248c37.16,0,71.98,3.89,98.05,10.96,28.53,7.73,34.95,16.19,34.95,18.54s-6.42,10.8-34.95,18.54c-26.07,7.07-60.9,10.96-98.05,10.96s-71.98-3.89-98.05-10.96c-28.53-7.73-34.95-16.19-34.95-18.54s6.42-10.8,34.95-18.54c26.07-7.07,60.9-10.96,98.05-10.96M177.72,239c-78.42,0-142,17.24-142,38.5s63.58,38.5,142,38.5,142-17.24,142-38.5-63.58-38.5-142-38.5h0Z"/>
      </g>
      <path class="cls-6" d="M176.72,146.22c-84.22,0-152.5,17.28-152.5,38.59v51.6c0,21.31,68.28,38.59,152.5,38.59s152.5-17.28,152.5-38.59v-51.6c0-21.31-68.28-38.59-152.5-38.59Z"/>
      <circle class="cls-2" cx="86.22" cy="213.5" r="15.5"/>
      <circle class="cls-2" cx="269.22" cy="210.5" r="15.5"/>
      <polygon class="cls-8" points="35.89 222.99 51.85 247 115.99 247.06 135.66 223 226.74 223 248.3 247 308 246.89 320.21 218.52 313.48 180 40.58 180 35.89 222.99"/>
      <circle class="cls-5" cx="41.72" cy="22" r="14"/>
      <circle class="cls-4" cx="305.72" cy="16" r="14"/>
    </g>
  </g>
</svg>